<svg width="120" height="90" viewBox="0 0 120 90" fill="none" xmlns="http://www.w3.org/2000/svg">
<path fill-rule="evenodd" clip-rule="evenodd" d="M109.936 0C109.912 -0.000162653 109.887 -0.000244141 109.862 -0.000244141H10.1381C10.1132 -0.000244141 10.0884 -0.000162653 10.0635 0H10C4.47715 0 0 4.47715 0 10V80C0 85.5229 4.47715 90 10 90H110C115.523 90 120 85.5229 120 80V10C120 4.47715 115.523 0 110 0H109.936ZM109.915 5H10.0854C5.21652 5.04516 3.27454 11.3426 7.30123 14.117L57.1631 48.4731C58.8713 49.6501 61.1288 49.6501 62.8369 48.4731L112.699 14.117C116.725 11.3426 114.784 5.04516 109.915 5ZM115 18.6034V80C115 82.7614 112.761 85 110 85H10C7.23858 85 5 82.7614 5 80V18.6034L54.3262 52.5904C57.7425 54.9443 62.2575 54.9443 65.6738 52.5904L115 18.6034Z" fill="#F6D5CB"/>
</svg>